<svg data-v-6805eed4="" version="1.0" xmlns="http://www.w3.org/2000/svg" xmlns:xlink="http://www.w3.org/1999/xlink" width="100%" height="100%" viewBox="0 0 340.000000 250.000000" preserveAspectRatio="xMidYMid meet" color-interpolation-filters="sRGB" style="margin: auto;"> <rect data-v-6805eed4="" x="0" y="0" width="100%" height="100%" fill="#35bb78" fill-opacity="1" class="background"></rect> <!----> <g data-v-6805eed4="" fill="#fff3e8" class="icon-text-wrapper icon-svg-group iconsvg" transform="translate(81.18499755859375,72.28827285766602)"><g class="iconsvg-imagesvg" transform="translate(58.81500244140625,0)"><g><rect fill="#fff3e8" fill-opacity="0" stroke-width="2" x="0" y="0" width="60" height="75.6534567325272" class="image-rect"></rect> <svg filter="url(#colors1159421926)" x="0" y="0" width="60" height="75.6534567325272" filtersec="colorsf3545649848" class="image-svg-svg primary" style="overflow: visible;"><svg xmlns="http://www.w3.org/2000/svg" xmlns:xlink="http://www.w3.org/1999/xlink" version="1.1" x="0px" y="0px" viewBox="15.999999046325684 7.270999908447266 69 87.00099182128906" enable-background="new 0 0 100 100" xml:space="preserve"><path d="M34.502,77.273c-1.381,0-2.5,0.447-2.5,1s1.119,1,2.5,1s2.5-0.447,2.5-1S35.883,77.273,34.502,77.273z   M34.502,66.273c-2.485,0-4.5,2.015-4.5,4.5s2.015,4.5,4.5,4.5s4.5-2.015,4.5-4.5S36.987,66.273,34.502,66.273z M50.502,79.273  c-0.829,0-1.5,0.224-1.5,0.5s0.671,0.5,1.5,0.5s1.5-0.224,1.5-0.5S51.331,79.273,50.502,79.273z M82.001,67.534V37.272  C81.994,20.758,68.515,7.281,52.003,7.271h-3c-16.518,0.01-29.995,13.486-30.001,30.001v30.262c-1.813,1.263-3,3.361-3.002,5.74  c0.002,2.379,1.188,4.478,3.002,5.741v8.257c0,0,0,0.082,0,0.186v0.314c0.025,1.273,0.789,2.057,1.402,2.509  c1.135,0.821,2.531,1.283,4.38,1.765c5.487,1.367,14.901,2.22,25.719,2.226c8.229,0,15.675-0.506,21.159-1.339  c2.748-0.422,4.993-0.915,6.697-1.528c0.858-0.312,1.585-0.642,2.239-1.123c0.609-0.452,1.377-1.235,1.402-2.509c0-0.17,0-0.5,0-0.5  v-8.257C83.813,77.751,85,75.653,85,73.274S83.813,68.798,82.001,67.534z M76.984,30.111c0.592,2.05,0.935,4.201,0.998,6.421  c-0.011,0.001-0.013,0.004-0.027,0.004c-0.088-0.016-0.301,0.019-0.861-0.46c-0.551-0.482-1.381-1.541-2.254-3.592  c-0.407-0.942-0.517-1.584-0.514-1.9c0.003-0.247,0.044-0.294,0.044-0.3c0.003,0.003-0.007-0.035,0.25-0.132  c0.241-0.088,0.67-0.15,1.121-0.147C76.188,30.005,76.645,30.06,76.984,30.111z M78.001,87.209  c-0.101,0.057-0.232,0.124-0.396,0.195c-1.56,0.714-5.248,1.51-9.999,2.022c-4.773,0.531-10.697,0.846-17.103,0.846  c-8.062,0.003-15.367-0.5-20.562-1.296c-2.588-0.393-4.663-0.868-5.943-1.333c-0.438-0.156-0.782-0.317-0.996-0.437V58.104  c7.699,1.987,17.619,3.165,28.5,3.168c9.961,0,19.115-0.992,26.499-2.682V87.209z M78.001,44.406c0,0-0.962,1.084-1.101,1.218  c-0.394-1.528-0.918-3.222-1.808-4.726c-0.871-1.511-2.46-3.096-4.769-3.1c-1.576,0.01-3.071,0.712-4.572,1.912  c-3.361,2.679-4.856,3.565-6.827,3.56c-0.073,0.001-0.162-0.011-0.239-0.014c1.294-0.096,2.316-1.163,2.316-2.481  c0-1.381-1.119-2.5-2.5-2.5s-2.5,1.119-2.5,2.5c0,1.168,0.805,2.142,1.888,2.416c-0.875-0.117-1.927-0.372-3.258-0.817  c-2.134-0.793-2.359-1.623-2.419-2.429c-0.044-1.05,0.984-2.45,2.272-2.729c1.688-0.436,3.641-0.445,5.884-0.853  c1.454-0.261,3.03-0.769,4.585-1.722l-2.941-2.943c-0.765,0.355-1.539,0.568-2.38,0.735c-1.758,0.342-3.804,0.336-6.116,0.899  c-3.102,0.815-5.258,3.52-5.302,6.611c-0.06,2.604,1.871,5.208,5.151,6.224c2.103,0.698,3.857,1.1,5.559,1.103  c3.51-0.003,6.013-1.786,9.325-4.437c1.093-0.881,1.792-1.044,2.074-1.034c0.335-0.003,0.714,0.166,1.335,1.149  c0.57,0.94,1.059,2.413,1.403,3.811c0.22,0.858,0.526,1.607,1.106,2.253c0.548,0.63,1.459,1.038,2.243,1.038  c0.022,0,0.046,0,0.069-0.001c0.61-0.028,1.104-0.163,1.52-0.349v4.786c-1.001,0.242-2.046,0.471-3.127,0.686  c-0.114-0.781-0.324-1.977-0.684-3.232c-0.307-1.061-0.702-2.154-1.351-3.151c-0.615-0.953-1.731-2.063-3.421-2.082  c-0.973,0-1.872,0.396-2.625,0.969c-1.829,1.376-3.336,2.21-4.606,2.632l0.661,3.967c2.071-0.56,4.126-1.738,6.351-3.403  c0.06-0.045,0.11-0.078,0.151-0.103c0.294,0.37,0.917,1.664,1.162,2.905c0.182,0.733,0.311,1.448,0.389,1.973  c0.013,0.082,0.021,0.147,0.031,0.219C66.119,56.61,60.726,57.09,55,57.229c-0.001-0.843-0.001-1.995-0.001-2.685  c0.174-0.191,0.685-0.564,1.398-0.543c0.27,0,0.589,0.041,0.969,0.169c0.938,0.313,1.916,0.477,2.9,0.477  c0.205-0.001,0.407-0.024,0.61-0.039l-0.66-3.962c-0.53-0.008-1.039-0.09-1.584-0.272c-0.765-0.254-1.521-0.376-2.235-0.373  c-1.518-0.003-2.81,0.533-3.725,1.264c-0.894,0.771-1.593,1.567-1.672,3.01v2.995c-0.982-0.003-1.956-0.017-2.921-0.04  c0.67-1.29,1.395-3.113,1.882-5.562c0.146-0.748,0.215-1.45,0.228-2.124l-4.036,0.579c-0.026,0.24-0.062,0.492-0.114,0.767  c-0.461,2.293-1.135,3.839-1.661,4.789c-0.264,0.473-0.489,0.799-0.637,0.99c-0.072,0.098-0.129,0.16-0.154,0.191l0.202,0.202  c-1.627-0.09-3.222-0.204-4.774-0.347c0.632-0.669,1.258-1.424,1.786-2.295l-3.738-1.602c-0.509,0.718-1.143,1.405-1.781,1.975  c-0.604,0.552-1.19,0.997-1.622,1.305c-2.268-0.315-4.417-0.688-6.427-1.11c0.316-0.081,0.634-0.168,0.953-0.285  c1.521-0.539,3.236-1.807,3.757-3.941c0.57-2.364,0.332-3.907,0.521-4.595c0.021-0.091,0.045-0.186,0.076-0.284l-1.424-4.745  c-1.519,1.479-2.306,2.83-2.575,4.246c-0.313,1.812-0.051,2.769-0.48,4.405c-0.147,0.53-0.433,0.818-1.279,1.167  c-0.815,0.313-1.994,0.433-2.929,0.43c-0.327,0-0.604-0.014-0.85-0.029v-3.351c0.136-0.081,1.457-0.843,2.842-2.342  c1.299-1.4,2.69-3.565,2.869-6.388h-3.997c-0.155,1.435-0.88,2.629-1.714,3.565v-5.567c0-1.147,0.083-2.276,0.229-3.386  c0.274,0.639,0.58,1.354,0.932,2.174c0.184,0.432,0.309,0.832,0.401,1.213h4.065c-0.134-0.904-0.383-1.837-0.789-2.789  c-2.246-5.238-2.811-6.555-2.953-6.887c0.319-0.789,0.676-1.559,1.068-2.308h0.001c0.548,0.088,2.06,0.438,3.233,1.14  c0.091,0.057,0.173,0.114,0.258,0.172l3.138-2.616c-1.462-1.256-3.118-1.923-4.374-2.274c0.086-0.113,0.176-0.222,0.262-0.333  c0.576,0.365,1.43,0.743,2.602,0.781h0.069c1.081,0,2.327-0.499,3.27-1.47c2.68-2.782,2.548-6.219,2.589-6.415h-0.078  c0.508-0.269,1.025-0.52,1.552-0.755c0.003,0.012,0.005,0.021,0.007,0.033c0.21,1.033,0.41,2.379,0.407,3.496  c0,0.555-0.054,1.049-0.135,1.378c-0.082,0.335-0.179,0.422-0.169,0.432c-0.93,0.88-1.324,2.19-1.293,3.205  c0.085,2.278,0.951,3.925,0.917,6.084c0,0.545-0.047,1.118-0.169,1.734c-0.304,1.693-1.806,2.561-2.529,2.522  c-0.278-0.009-0.338-0.065-0.391-0.115c-0.047-0.054-0.21-0.238-0.22-0.914c0-0.21,0.022-0.47,0.072-0.773  c0.075-0.46,0.112-0.901,0.112-1.336c0.008-1.465-0.456-2.773-1.147-3.804l-3.112,2.595c0.162,0.348,0.254,0.74,0.26,1.209  c0,0.197-0.019,0.429-0.059,0.691c-0.082,0.476-0.126,0.951-0.126,1.418c-0.006,1.411,0.426,2.741,1.331,3.681  c0.888,0.935,2.113,1.349,3.242,1.349h0.037c2.883-0.04,5.703-2.216,6.451-5.737c0.179-0.895,0.247-1.736,0.247-2.52  c-0.034-3.042-0.998-5.317-0.917-6.084c0.031-0.341,0-0.216,0.116-0.369c1.349-1.456,1.439-3.111,1.48-4.646  c-0.009-1.818-0.339-3.66-0.61-4.885c0.702-0.189,1.416-0.348,2.141-0.477c0.035,0.088,0.069,0.177,0.111,0.286  c0.681,1.771,2.041,5.958,2.028,9.946c0,1.326-0.144,2.625-0.482,3.804c-1.549,5.55-3.28,8.548-3.343,12.414  c0,0.854,0.101,1.731,0.329,2.625c0.515,2.051,1.434,3.565,2.073,4.857c0.445,0.896,0.764,1.658,0.93,2.493l3.972-0.567  c-0.261-1.452-0.801-2.679-1.327-3.723c-0.743-1.465-1.427-2.649-1.771-4.036c-0.145-0.583-0.204-1.106-0.207-1.649  c-0.06-2.339,1.474-5.438,3.192-11.316c0.461-1.625,0.637-3.286,0.637-4.901c-0.017-4.324-1.22-8.387-2.023-10.637  c0.155-0.003,0.309-0.012,0.465-0.012h1.259c0.047,0.1,0.125,0.271,0.238,0.543c0.27,0.631,0.666,1.695,1.011,2.987l3.548-2.129  c-0.143-0.46-0.288-0.893-0.426-1.269c3.258,0.332,6.338,1.277,9.135,2.709c-0.025,0-0.049-0.003-0.073-0.003  c-0.688,0-1.39,0.06-2.087,0.2c-1.029,0.194-2.043,0.686-2.703,1.549c-0.66,0.864-0.817,1.847-0.813,2.641  c0.059,2.172,0.856,4.118,0.816,5.667c-0.044,1.116-0.2,1.733-1.154,2.543c-0.887,0.729-1.555,1.027-1.862,1.128  c-0.116-0.3-0.249-0.99-0.24-1.891c0-0.927,0.112-2.078,0.322-3.345c0.162-0.982,0.231-1.949,0.231-2.885  c-0.007-1.831-0.264-3.543-0.604-5.034l-3.646,2.185c0.151,0.913,0.254,1.873,0.251,2.85c0,0.738-0.057,1.489-0.179,2.23  c-0.237,1.424-0.375,2.766-0.375,3.999c0.01,1.357,0.141,2.578,0.682,3.727c0.457,1.117,1.794,2.208,3.25,2.208  c0.04,0,0.08-0.001,0.12-0.003c1.63-0.037,2.969-0.816,4.546-2.043c2.006-1.558,2.7-3.833,2.656-5.669  c-0.037-2.525-0.879-4.766-0.816-5.667c0-0.078,0.005-0.14,0.01-0.184c0.058-0.023,0.151-0.055,0.291-0.082  c0.416-0.084,0.851-0.125,1.305-0.125c1.82-0.01,3.938,0.676,5.544,1.405c0.239,0.107,0.463,0.215,0.678,0.321  c-1.303,0.29-2.629,0.941-3.581,2.331C64.966,24.207,65,26.303,65,27.647c0.004,0.689-0.012,1.222-0.084,1.551  c-0.078,0.339-0.138,0.454-0.329,0.664c-0.286,0.282-0.564,0.521-0.84,0.743l2.846,2.847c0.277-0.237,0.552-0.489,0.823-0.764  c0.809-0.796,1.247-1.805,1.42-2.685c0.179-0.891,0.163-1.671,0.166-2.356c0-1.407,0.031-2.31,0.664-3.265  c0.231-0.424,1.031-0.769,2.321-0.765c0.786,0,1.627,0.128,2.273,0.267c0.419,0.691,0.809,1.404,1.163,2.136  c-0.91,0.03-1.939,0.161-2.985,0.747c-1.193,0.62-2.177,2.173-2.114,3.816c0.004,1.084,0.295,2.208,0.84,3.479  c1.033,2.401,2.113,3.974,3.277,5.01c1.137,1.025,2.428,1.463,3.47,1.463c0.015,0,0.029-0.001,0.044-0.001  c0.018,0,0.029-0.004,0.046-0.005V44.406z M58.002,39.775c0,0.276-0.224,0.5-0.5,0.5s-0.5-0.224-0.5-0.5s0.224-0.5,0.5-0.5  S58.002,39.499,58.002,39.775z M39.387,39.753c-0.756-0.781-1.897-1.418-3.199-1.408c-1.235,0-2.391,0.53-3.417,1.354l1.261,4.197  c0.331-0.312,0.72-0.656,1.219-1.062c0.584-0.467,0.878-0.492,0.938-0.492c0.054,0.01,0.095-0.019,0.354,0.226  c0.844,0.696,1.778,3.927,1.706,6.297c0.003,0.784-0.075,1.483-0.188,1.926c-0.019,0.08-0.051,0.164-0.075,0.246l3.685,1.578  c0.103-0.278,0.196-0.562,0.273-0.858c0.22-0.894,0.308-1.863,0.308-2.892c-0.007-2.076-0.361-4.381-1.161-6.385  C40.679,41.48,40.161,40.543,39.387,39.753z M66.502,77.273c-1.381,0-2.5,0.447-2.5,1s1.119,1,2.5,1s2.5-0.447,2.5-1  S67.883,77.273,66.502,77.273z M47.002,79.773c0,0.172,0.026,0.336,0.051,0.5c0.244-1.694,1.687-3,3.449-3  c1.762,0,3.205,1.306,3.449,3c0.024-0.164,0.051-0.328,0.051-0.5c0-1.934-1.567-3.5-3.5-3.5  C48.568,76.273,47.002,77.84,47.002,79.773z M66.502,75.273c2.485,0,4.5-2.015,4.5-4.5s-2.015-4.5-4.5-4.5s-4.5,2.015-4.5,4.5  S64.017,75.273,66.502,75.273z"></path></svg></svg> <defs><filter id="colors1159421926"><feColorMatrix type="matrix" values="0 0 0 0 0.99609375  0 0 0 0 0.94921875  0 0 0 0 0.90625  0 0 0 1 0" class="icon-fecolormatrix"></feColorMatrix></filter> <filter id="colorsf3545649848"><feColorMatrix type="matrix" values="0 0 0 0 0.99609375  0 0 0 0 0.99609375  0 0 0 0 0.99609375  0 0 0 1 0" class="icon-fecolormatrix"></feColorMatrix></filter> <filter id="colorsb4090149625"><feColorMatrix type="matrix" values="0 0 0 0 0  0 0 0 0 0  0 0 0 0 0  0 0 0 1 0" class="icon-fecolormatrix"></feColorMatrix></filter></defs></g></g> <g transform="translate(0,82.65345764160156)"><g data-gra="path-name" fill-rule="" class="tp-name iconsvg-namesvg"><g transform="scale(1)"><g><path d="M11.88-21.82C4.63-21.82 1.04-16.54 1.04-10.77 1.04-5.09 4.66 0.37 11.88 0.37 19.09 0.37 22.68-5.06 22.71-10.71 22.74-16.51 19.12-21.82 11.88-21.82ZM11.88-20.28C18.04-20.28 21.11-15.71 21.11-10.74 21.11-5.89 18.01-1.17 11.88-1.17 5.77-1.17 2.7-5.89 2.67-10.74 2.64-15.8 5.71-20.28 11.88-20.28ZM50.32 0L50.32-9.08C50.32-12.86 47.68-15.47 43.97-15.47 41.64-15.47 39.28-14.21 38.36-11.72 37.47-14.42 35.04-15.47 32.74-15.47 30.78-15.47 28.84-14.64 27.8-12.64L27.77-15.16 26.36-15.16 26.36 0 27.86 0 27.86-8.99C27.86-11.91 29.83-14.02 32.71-14.02 35.59-14.02 37.59-11.91 37.59-8.99L37.59 0 39.09 0 39.09-8.99C39.09-11.91 41.09-14.05 43.97-14.05 46.86-14.05 48.82-12 48.82-9.08L48.82 0ZM54.56-15.16L54.56 0 56.06 0 56.06-8.44C56.06-11.57 58.24-13.93 61.37-13.96 64.65-13.99 66.77-12.15 66.77-8.71L66.77 0 68.27 0 68.27-8.75C68.27-12.95 65.48-15.43 61.43-15.43 59.31-15.4 57.2-14.54 56.03-12.46L56.03-15.16ZM73.71-15.22L73.71 0 72.2 0 72.2-15.22ZM71.77-20.1C71.77-18.5 74.2-18.5 74.2-20.1 74.2-21.69 71.77-21.69 71.77-20.1Z" transform="translate(-1.0399999618530273, 22.219999313354492)"></path></g> <!----> <!----> <!----> <!----> <!----> <!----> <g data-gra="path-name-1" fill="#fff3e8" transform="translate(76.15999603271484,0)"><g transform="scale(1)"><path d="M17.98-17.95C16.36-21.26 12.89-22.22 9.54-22.22 5.58-22.19 1.23-20.38 1.23-15.96 1.23-11.14 5.28-9.97 9.67-9.45 12.52-9.14 14.64-8.32 14.64-6.29 14.64-3.96 12.24-3.07 9.7-3.07 7.09-3.07 4.6-4.11 3.65-6.47L0.28-4.73C1.87-0.8 5.25 0.55 9.64 0.55 14.42 0.55 18.66-1.5 18.66-6.29 18.66-11.41 14.48-12.58 10-13.13 7.43-13.44 5.22-13.96 5.22-15.83 5.22-17.43 6.66-18.69 9.67-18.69 12-18.69 14.02-17.52 14.76-16.29ZM37.5-6.23C38.08-12.46 34.92-15.59 29.86-15.59 24.95-15.59 21.82-12.27 21.82-7.67 21.82-2.82 24.92 0.4 30.13 0.4 32.43 0.4 35.04-0.4 36.64-2.06L34.24-4.42C33.39-3.53 31.58-3.01 30.19-3.01 27.56-3.01 25.93-4.36 25.68-6.23ZM25.74-9.33C26.3-11.29 27.95-12.27 29.98-12.27 32.13-12.27 33.66-11.29 33.91-9.33ZM52.26-13.04C51.4-14.54 49.46-15.5 47.44-15.5 43.02-15.53 39.55-12.8 39.55-7.58 39.55-2.27 42.87 0.49 47.35 0.46 49.04 0.43 51.4-0.43 52.26-2.21L52.44 0 55.97 0 55.97-15.13 52.38-15.13ZM47.78-12.15C53.67-12.15 53.67-2.98 47.78-2.98 45.29-2.98 43.3-4.69 43.3-7.58 43.3-10.46 45.29-12.15 47.78-12.15ZM59.13-15.13L59.13 0 62.87 0 62.87-7.98C62.87-10.77 64.68-11.81 66.65-11.81 67.88-11.81 68.58-11.48 69.35-10.83L71.04-14.08C70.21-14.91 68.7-15.53 67.14-15.53 65.61-15.53 64.04-15.25 62.87-13.38L62.6-15.13ZM82.91-4.39C81.99-3.47 80.79-3.13 79.6-3.13 77.27-3.13 75.3-4.66 75.3-7.55 75.3-10.19 77.14-12.03 79.66-12.03 80.7-12.03 81.81-11.63 82.7-10.83L85.06-13.32C83.4-14.94 81.75-15.56 79.6-15.56 75.21-15.56 71.56-12.92 71.56-7.55 71.56-2.18 75.21 0.46 79.6 0.46 81.84 0.46 83.68-0.21 85.43-1.93ZM87.08-21.48L87.08 0 90.83 0 90.83-7.73C90.83-10 92.36-11.88 94.57-11.88 96.57-11.88 98.01-10.71 98.01-7.95L98.01 0 101.75 0 101.75-7.98C101.75-12.43 99.85-15.34 95.55-15.34 93.84-15.34 92.18-14.82 90.83-13.07L90.83-21.48Z" transform="translate(-0.2800000011920929, 22.219999313354492)"></path></g></g></g></g> <!----></g></g><defs v-gra="od"></defs></svg>